<svg width="126" height="65" viewBox="0 0 126 65" fill="none" xmlns="http://www.w3.org/2000/svg">
<g clip-path="url(#clip0_506_16)">
<path d="M34.6956 20.8784V40.2027H31.314C30.7237 40.1974 30.1591 39.9608 29.7417 39.5438C29.3243 39.1267 29.0874 38.5627 29.0821 37.973V26.3513L25.9034 38.3108C25.7649 38.8328 25.4578 39.2946 25.0298 39.6244C24.6018 39.9543 24.0768 40.1338 23.5362 40.1351C22.9933 40.1432 22.4637 39.9673 22.0337 39.6359C21.6038 39.3046 21.299 38.8375 21.1691 38.3108L17.9227 26.2838V38.3108C17.9236 38.5506 17.877 38.7882 17.7855 39.01C17.6941 39.2317 17.5596 39.4332 17.3898 39.6028C17.2201 39.7724 17.0184 39.9067 16.7965 39.9981C16.5745 40.0894 16.3367 40.136 16.0966 40.1351H13.3913V20.8784H21.2367L24.0773 31.1486L26.7826 20.8784H34.6956Z" fill="white"/>
<path d="M44.1642 26.554L41.0531 38.5135C40.9325 38.9958 40.654 39.424 40.2619 39.73C39.8697 40.0361 39.3865 40.2024 38.8889 40.2027H35.913L41.0531 22.973C41.2153 22.3904 41.5578 21.8741 42.0316 21.4978C42.5053 21.1216 43.0861 20.9047 43.6908 20.8784H47.7488L53.6328 40.2027H49.7778C49.1763 40.201 48.5922 40.0016 48.1155 39.6352C47.6388 39.2689 47.296 38.756 47.1401 38.1757L44.1642 26.554Z" fill="white"/>
<path d="M80.2802 26.554L77.3043 38.5811C77.1911 39.018 76.9384 39.4061 76.5844 39.6866C76.2305 39.967 75.7946 40.1245 75.343 40.1351H72.4348L77.3043 23.0405C77.4633 22.4068 77.8286 21.8439 78.3428 21.4402C78.857 21.0366 79.491 20.8152 80.1449 20.8108H83.7294L89.2753 40.1351H85.3526C84.8715 40.13 84.4068 39.9591 84.0372 39.6513C83.6675 39.3436 83.4155 38.9178 83.3236 38.4459L80.2802 26.554Z" fill="white"/>
<path d="M89.0048 34.5946L94.0773 33.5811C94.4831 35.1351 95.6328 35.9459 97.3913 35.9459C98.7439 35.9459 99.4879 35.5405 99.4879 34.7297C99.5031 34.5439 99.4669 34.3574 99.3835 34.1907C99.3 34.0239 99.1724 33.8832 99.0145 33.7838C98.4817 33.504 97.9127 33.2993 97.3237 33.1757C94.2125 32.5 92.1836 31.6892 91.3043 30.6081C90.4253 29.5696 89.9457 28.2519 89.9517 26.8919C89.925 26.0459 90.0802 25.204 90.4069 24.4231C90.7336 23.6422 91.2241 22.9403 91.8454 22.3649C93.1304 21.1486 94.9565 20.5405 97.3913 20.5405C101.043 20.5405 103.411 22.0946 104.628 25.2703L100.029 26.8243C99.8448 26.2263 99.4643 25.7077 98.949 25.3522C98.4336 24.9967 97.8134 24.825 97.1884 24.8649C95.971 24.8649 95.4299 25.2703 95.4299 26.0811C95.426 26.2391 95.461 26.3956 95.5317 26.537C95.6025 26.6783 95.7069 26.8002 95.8357 26.8919C96.3112 27.1776 96.8409 27.3617 97.3913 27.4324C98.9311 27.7493 100.446 28.1784 101.923 28.7162C102.844 29.1353 103.62 29.817 104.155 30.6757C104.776 31.6399 105.083 32.773 105.034 33.9189C105.059 34.8268 104.87 35.7279 104.482 36.5494C104.094 37.371 103.519 38.09 102.802 38.6486C101.163 39.9186 99.1253 40.5652 97.0531 40.473C92.7246 40.473 90.0869 38.5135 89.0048 34.5946Z" fill="white"/>
<path d="M112.609 18.8514V37.3649C112.627 37.7254 112.573 38.0859 112.449 38.4251C112.325 38.7643 112.135 39.0753 111.889 39.3398C111.643 39.6044 111.347 39.817 111.018 39.9652C110.688 40.1134 110.332 40.1942 109.971 40.2027H107.13V20.8784L112.609 18.8514Z" fill="white"/>
<path d="M63.7778 28.6487C64.3359 28.6788 64.8867 28.5114 65.3333 28.1757C65.5358 28.0157 65.6968 27.8094 65.8028 27.5742C65.9087 27.339 65.9565 27.0818 65.942 26.8243C65.942 25.6081 65.2657 25 63.9807 25H59.7874V38.1757C59.8218 38.6841 59.658 39.1861 59.3302 39.5766C59.0024 39.967 58.5361 40.2156 58.029 40.2703H54.715V20.8784H65.1981C66.8317 20.7962 68.4331 21.3537 69.6618 22.4324C70.1962 22.9718 70.6109 23.6176 70.8789 24.3278C71.1469 25.0379 71.2622 25.7965 71.2174 26.5541C71.2317 27.5773 71.024 28.5916 70.6087 29.527C70.1048 30.5238 69.2672 31.3128 68.2415 31.7568L71.2174 40.2027H67.2947C66.7679 40.1795 66.2619 39.9905 65.8489 39.6629C65.436 39.3353 65.1372 38.8857 64.9952 38.3784L63.1691 32.8378L61.8164 28.7162L63.7778 28.6487Z" fill="white"/>
<path d="M126 60.3378H0V0H126V60.3378ZM6.22222 54.1216H119.778V6.21622H6.22222V54.1216Z" fill="white"/>
<path d="M66.0435 65H59.8889V50.946L66.0435 48.9865V65Z" fill="white"/>
</g>
<defs>
<clipPath id="clip0_506_16">
<rect width="126" height="65" fill="white"/>
</clipPath>
</defs>
</svg>
