<svg width="74" height="74" viewBox="0 0 74 74" fill="none" xmlns="http://www.w3.org/2000/svg">
<path d="M74 37C74 44.3167 71.8307 51.4692 67.7663 57.5532C63.7019 63.6373 57.9249 68.3796 51.1657 71.1809C44.4064 73.9821 36.9683 74.7165 29.7918 73.2911C22.6153 71.8656 16.0224 68.3445 10.8468 63.1727C5.67117 58.0009 2.14509 51.4107 0.714324 44.2352C-0.716439 37.0597 0.0123542 29.6211 2.80857 22.8598C5.60479 16.0984 10.3429 10.3179 16.4239 6.24901C22.5049 2.18009 29.6557 0.00544863 36.9725 0C46.7855 0 56.1966 3.8982 63.1354 10.837C70.0743 17.7759 73.9725 27.187 73.9725 37" fill="white"/>
<path d="M33.0756 23.3376C32.4493 23.3376 31.8486 23.0888 31.4057 22.6459C30.9628 22.203 30.7139 21.6023 30.7139 20.9759V15.5125C30.7767 14.9336 31.0512 14.3984 31.4845 14.0095C31.9179 13.6206 32.4796 13.4055 33.0619 13.4055C33.6441 13.4055 34.2058 13.6206 34.6392 14.0095C35.0726 14.3984 35.347 14.9336 35.4098 15.5125V20.9916C35.4098 21.618 35.161 22.2187 34.7181 22.6616C34.2751 23.1045 33.6744 23.3533 33.0481 23.3533" fill="#BC6AD9"/>
<path d="M42.9042 23.3376C42.2778 23.3376 41.6771 23.0888 41.2342 22.6459C40.7913 22.203 40.5425 21.6023 40.5425 20.9759V15.5125C40.6053 14.9336 40.8797 14.3984 41.3131 14.0095C41.7464 13.6206 42.3081 13.4055 42.8904 13.4055C43.4727 13.4055 44.0344 13.6206 44.4678 14.0095C44.9011 14.3984 45.1755 14.9336 45.2383 15.5125V20.9916C45.2383 21.618 44.9895 22.2187 44.5466 22.6616C44.1037 23.1045 43.503 23.3533 42.8766 23.3533" fill="#BC6AD9"/>
<path d="M11.4385 29.789C13.9537 32.0484 17.2483 33.2922 20.4917 34.1739C24.1143 35.1186 27.815 35.7338 31.5484 36.0121C38.493 36.6144 45.4892 36.1028 52.2723 34.4967C55.9133 33.6189 59.7235 32.3318 62.5536 29.7733C62.7732 29.5539 62.9474 29.2935 63.0663 29.0068C63.1851 28.7201 63.2463 28.4127 63.2463 28.1024C63.2463 27.792 63.1851 27.4847 63.0663 27.198C62.9474 26.9113 62.7732 26.6508 62.5536 26.4315C62.104 26.0022 61.5063 25.7627 60.8847 25.7627C60.2631 25.7627 59.6654 26.0022 59.2157 26.4315C59.0898 26.5417 58.9678 26.6519 58.8221 26.7582C58.4088 27.0928 59.1843 26.4945 58.893 26.7031C58.6017 26.9117 58.3065 27.0967 58.0034 27.2974C57.3928 27.6683 56.7591 27.9996 56.1062 28.2893C55.9448 28.3641 55.3189 28.6082 56.055 28.3208C55.8976 28.3799 55.744 28.4468 55.5905 28.5098C55.1969 28.6672 54.8033 28.8129 54.3861 28.9506C53.5988 29.2183 52.8116 29.4545 52.0244 29.6709C50.3071 30.1248 48.5677 30.4901 46.8129 30.7652C46.4193 30.8321 46.0256 30.8912 45.632 30.9463C45.4667 30.9699 45.0888 31.0053 45.7659 30.9463C45.6714 30.9463 45.5769 30.9699 45.4864 30.9817L44.7818 31.0683C43.908 31.1706 43.0328 31.2572 42.1564 31.3281C39.0909 31.578 36.0113 31.6056 32.9418 31.4107C32.1113 31.3556 31.2768 31.2848 30.4463 31.2021C30.029 31.1588 29.6157 31.1155 29.1985 31.0643L28.5687 30.9896L28.2893 30.9502C29.0096 31.025 28.5254 30.9856 28.3562 30.9502C26.6164 30.7022 24.8963 30.3913 23.1959 29.9898C21.3936 29.5641 19.6232 29.013 17.8978 28.3405C18.6417 28.6279 17.9765 28.3681 17.7954 28.2893L17.2601 28.0335C16.8665 27.8485 16.5122 27.6399 16.154 27.4391C15.7959 27.2384 15.54 27.0455 15.2487 26.8526L15.0795 26.7306C14.7449 26.4945 15.5282 27.0927 15.233 26.8487C15.0755 26.7227 14.926 26.5968 14.7764 26.4551C13.8593 25.6324 12.332 25.4829 11.4385 26.4551C10.608 27.3565 10.4545 28.9152 11.4385 29.7969V29.789Z" fill="#BC6AD9"/>
<path d="M49.0447 63.3055C48.8021 63.3217 48.5589 63.2879 48.3299 63.2062C48.101 63.1245 47.8913 62.9967 47.7138 62.8306C47.5363 62.6645 47.3947 62.4638 47.298 62.2408C47.2012 62.0178 47.1513 61.7773 47.1513 61.5342C47.1513 61.2911 47.2012 61.0507 47.298 60.8277C47.3947 60.6047 47.5363 60.4039 47.7138 60.2379C47.8913 60.0718 48.101 59.944 48.3299 59.8623C48.5589 59.7806 48.8021 59.7468 49.0447 59.7629C50.7569 59.7629 52.0519 59.2512 52.9809 58.2082C53.0871 58.0901 53.1855 57.972 53.28 57.85C52.3329 58.0477 51.3537 58.0318 50.4135 57.8036C49.4734 57.5753 48.5959 57.1404 47.8449 56.5304C47.0939 55.9204 46.4884 55.1507 46.0722 54.2773C45.6561 53.4039 45.4398 52.4487 45.4392 51.4812V50.3004C45.4282 48.5748 46.1032 46.9155 47.3156 45.6875C48.5281 44.4595 50.1787 43.7635 51.9043 43.7526C53.6299 43.7416 55.2893 44.4166 56.5172 45.6291C57.7452 46.8415 58.4412 48.4921 58.4521 50.2177C58.523 51.0561 58.8812 56.9801 55.6181 60.5856C53.9806 62.3962 51.7606 63.3134 49.025 63.3134M51.9456 47.3443C51.162 47.3454 50.4107 47.6571 49.8565 48.2113C49.3024 48.7654 48.9906 49.5167 48.9896 50.3004V51.4812C48.9689 51.8817 49.0299 52.2823 49.1689 52.6584C49.3079 53.0346 49.5221 53.3786 49.7982 53.6694C50.0744 53.9602 50.4068 54.1917 50.7753 54.35C51.1438 54.5082 51.5407 54.5898 51.9417 54.5898C52.3427 54.5898 52.7396 54.5082 53.1081 54.35C53.4766 54.1917 53.809 53.9602 54.0852 53.6694C54.3614 53.3786 54.5755 53.0346 54.7145 52.6584C54.8535 52.2823 54.9145 51.8817 54.8938 51.4812V50.3004C54.8928 49.5167 54.581 48.7654 54.0269 48.2113C53.4727 47.6571 52.7215 47.3454 51.9378 47.3443" fill="#BC6AD9"/>
<path d="M42.8768 57.0469C42.8789 57.0405 42.8789 57.0337 42.8768 57.0273C42.9248 56.938 42.9644 56.8445 42.9948 56.7478V56.7478C43.0251 56.6487 43.0475 56.5473 43.0618 56.4447V56.4172C43.1208 55.9133 43.7348 49.6312 40.0585 46.0453C38.0195 44.0773 35.1658 43.3136 31.58 43.8332C31.3421 43.858 31.1118 43.9305 30.9027 44.0464C30.6936 44.1624 30.5101 44.3194 30.3631 44.508C30.2162 44.6967 30.1089 44.913 30.0477 45.1441C29.9864 45.3752 29.9725 45.6164 30.0067 45.853C30.0409 46.0896 30.1226 46.3169 30.2468 46.5212C30.371 46.7255 30.5352 46.9026 30.7296 47.0419C30.9239 47.1811 31.1444 47.2797 31.3778 47.3317C31.6112 47.3836 31.8526 47.3879 32.0877 47.3443C34.5203 46.994 36.3663 47.4112 37.5747 48.5802C39.1886 50.1547 39.5428 52.7841 39.5822 54.4609H29.4111C28.7934 54.4598 28.2013 54.214 27.7646 53.7772C27.3278 53.3405 27.082 52.7484 27.0809 52.1307V49.1392C27.0509 48.6898 26.8513 48.2686 26.5224 47.961C26.1935 47.6533 25.76 47.4821 25.3096 47.4821C24.8593 47.4821 24.4257 47.6533 24.0969 47.961C23.768 48.2686 23.5683 48.6898 23.5384 49.1392V52.1307C23.5373 52.7473 23.2919 53.3384 22.8559 53.7744C22.4198 54.2105 21.8287 54.4559 21.2121 54.4569C20.7416 54.4559 20.2907 54.2685 19.958 53.9358C19.6253 53.6032 19.4379 53.1522 19.4369 52.6817V42.0541C19.453 41.8115 19.4192 41.5683 19.3376 41.3393C19.2559 41.1104 19.128 40.9007 18.962 40.7231C18.7959 40.5456 18.5951 40.4041 18.3722 40.3074C18.1492 40.2106 17.9087 40.1607 17.6656 40.1607C17.4225 40.1607 17.182 40.2106 16.959 40.3074C16.736 40.4041 16.5353 40.5456 16.3692 40.7231C16.2032 40.9007 16.0753 41.1104 15.9936 41.3393C15.9119 41.5683 15.8781 41.8115 15.8943 42.0541V52.7014C15.8954 54.1129 16.4562 55.4663 17.4539 56.4647C18.4516 57.4631 19.8046 58.025 21.216 58.027C22.7503 58.028 24.2234 57.4258 25.3175 56.3502C26.4138 57.425 27.8877 58.027 29.4229 58.027H41.3338C41.4354 58.0259 41.5367 58.0167 41.6369 57.9995H41.6684C41.7627 57.9829 41.855 57.9565 41.9439 57.9208H41.9793C42.0662 57.8865 42.1504 57.8457 42.2312 57.7987L42.2667 57.7751C42.3464 57.7271 42.4215 57.6718 42.491 57.6098L42.5225 57.5823C42.5904 57.5202 42.6536 57.4531 42.7114 57.3815L42.7351 57.35C42.7956 57.2756 42.8484 57.1951 42.8925 57.1099" fill="#BC6AD9"/>
<path d="M38.9405 63.4432C38.4697 63.4432 38.0182 63.2562 37.6853 62.9233C37.3523 62.5903 37.1653 62.1388 37.1653 61.668V61.5342C37.1491 61.2916 37.1829 61.0484 37.2646 60.8194C37.3463 60.5905 37.4742 60.3808 37.6402 60.2032C37.8063 60.0257 38.007 59.8842 38.23 59.7875C38.453 59.6907 38.6935 59.6408 38.9366 59.6408C39.1797 59.6408 39.4202 59.6907 39.6431 59.7875C39.8661 59.8842 40.0669 60.0257 40.233 60.2032C40.399 60.3808 40.5269 60.5905 40.6085 60.8194C40.6902 61.0484 40.724 61.2916 40.7079 61.5342V61.668C40.7079 62.1375 40.5219 62.5878 40.1907 62.9205C39.8595 63.2532 39.41 63.4411 38.9405 63.4432" fill="#BC6AD9"/>
<path d="M22.4086 63.4432C21.9378 63.4432 21.4863 63.2562 21.1533 62.9233C20.8204 62.5903 20.6334 62.1388 20.6334 61.668V61.5342C20.6172 61.2916 20.651 61.0484 20.7327 60.8194C20.8144 60.5905 20.9422 60.3808 21.1083 60.2032C21.2744 60.0257 21.4751 59.8842 21.6981 59.7875C21.9211 59.6907 22.1616 59.6408 22.4047 59.6408C22.6477 59.6408 22.8882 59.6907 23.1112 59.7875C23.3342 59.8842 23.535 60.0257 23.701 60.2032C23.8671 60.3808 23.9949 60.5905 24.0766 60.8194C24.1583 61.0484 24.1921 61.2916 24.1759 61.5342V61.668C24.1759 62.1375 23.99 62.5878 23.6588 62.9205C23.3276 63.2532 22.8781 63.4411 22.4086 63.4432" fill="#BC6AD9"/>
</svg>
