<?xml version="1.0" encoding="UTF-8" standalone="no"?>
<!DOCTYPE svg PUBLIC "-//W3C//DTD SVG 1.1//EN" "http://www.w3.org/Graphics/SVG/1.1/DTD/svg11.dtd">
<svg xmlns="http://www.w3.org/2000/svg" version="1.1" viewBox="0 0 869 128">
<path fill="#FFFFFF" d="
  M 430.56 0.00
  L 448.31 0.00
  C 472.73 1.64 523.59 12.63 525.83 44.80
  C 527.61 70.32 493.13 84.94 473.44 89.24
  Q 438.43 96.89 403.52 88.65
  C 384.21 84.09 352.97 70.64 352.94 46.53
  C 352.90 13.36 406.32 1.33 430.56 0.00
  Z
  M 522.28 46.37
  A 82.88 42.55 0.0 0 0 439.40 3.82
  A 82.88 42.55 0.0 0 0 356.52 46.37
  A 82.88 42.55 0.0 0 0 439.40 88.92
  A 82.88 42.55 0.0 0 0 522.28 46.37
  Z"
/>
<path fill="#FFFFFF" d="
  M 0.00 1.44
  L 0.00 0.94
  L 16.85 1.60
  A 1.02 1.01 72.6 0 1 17.62 2.01
  L 31.22 20.62
  A 1.00 0.99 44.9 0 0 32.83 20.62
  L 46.46 1.92
  A 1.01 0.98 16.2 0 1 47.23 1.51
  L 62.71 0.86
  Q 64.33 0.79 63.40 2.11
  L 39.68 35.94
  A 1.00 0.94 64.4 0 0 39.50 36.51
  L 39.50 64.50
  A 1.00 1.00 0.0 0 1 38.50 65.50
  L 26.00 65.50
  A 1.00 1.00 0.0 0 1 25.00 64.50
  L 25.00 37.19
  A 1.03 1.01 -62.8 0 0 24.82 36.61
  L 0.00 1.44
  Z"
/>
<circle fill="#FFFFFF" cx="573.37" cy="8.17" r="7.03"/>
<circle fill="#FFFFFF" cx="654.69" cy="8.18" r="7.02"/>
<circle fill="#FFFFFF" cx="591.23" cy="8.18" r="7.03"/>
<circle fill="#FFFFFF" cx="254.75" cy="8.66" r="7.02"/>
<path fill="#FFFFFF" d="
  M 684.50 52.25
  L 709.49 52.25
  A 0.99 0.98 16.2 0 0 710.32 51.80
  C 719.43 37.94 738.84 37.34 747.76 51.78
  A 1.00 0.99 -15.6 0 0 748.61 52.25
  L 774.25 52.25
  A 1.00 1.00 0.0 0 0 775.25 51.25
  L 775.25 27.00
  A 1.00 1.00 0.0 0 1 776.25 26.00
  L 789.00 26.00
  A 1.00 1.00 0.0 0 1 790.00 27.00
  L 790.00 51.25
  A 1.00 1.00 0.0 0 0 791.00 52.25
  L 816.50 52.25
  A 1.00 1.00 0.0 0 0 817.50 51.25
  L 817.50 3.51
  A 1.00 1.00 0.0 0 1 818.50 2.51
  L 831.00 2.50
  A 1.00 1.00 0.0 0 1 832.00 3.50
  L 832.00 65.75
  A 1.00 1.00 0.0 0 1 831.00 66.75
  L 751.07 66.75
  A 1.00 0.99 -82.4 0 0 750.11 67.49
  C 744.17 89.33 714.16 89.19 708.03 67.48
  A 1.00 0.99 -7.6 0 0 707.07 66.75
  L 586.25 66.75
  A 1.00 1.00 0.0 0 1 585.25 65.75
  L 585.25 55.00
  A 1.00 1.00 0.0 0 0 584.25 54.00
  L 561.60 54.00
  A 1.00 1.00 0.0 0 1 560.60 53.03
  Q 560.31 44.16 560.47 42.02
  C 561.65 25.64 571.89 17.39 587.50 17.49
  Q 593.13 17.53 598.74 17.49
  A 1.00 1.00 0.0 0 1 599.75 18.49
  L 599.75 51.25
  A 1.00 1.00 0.0 0 0 600.75 52.25
  L 626.00 52.25
  A 1.00 1.00 0.0 0 0 627.00 51.25
  L 627.00 27.00
  A 1.00 1.00 0.0 0 1 628.00 26.00
  L 640.50 26.00
  A 1.00 1.00 0.0 0 1 641.50 27.00
  L 641.50 51.25
  A 1.00 1.00 0.0 0 0 642.50 52.25
  L 668.00 52.25
  A 1.00 1.00 0.0 0 0 669.00 51.25
  L 669.00 27.00
  A 1.00 1.00 0.0 0 1 670.00 26.00
  L 682.50 26.00
  A 1.00 1.00 0.0 0 1 683.50 27.00
  L 683.50 51.25
  A 1.00 1.00 0.0 0 0 684.50 52.25
  Z
  M 576.69 34.94
  Q 574.96 37.26 574.68 39.63
  A 1.00 1.00 0.0 0 0 575.67 40.75
  L 583.75 40.75
  A 1.00 1.00 0.0 0 0 584.75 39.75
  L 584.75 31.88
  A 1.00 0.99 -2.4 0 0 583.67 30.89
  Q 579.46 31.22 576.69 34.94
  Z
  M 737.05 62.53
  A 7.97 7.97 0.0 0 0 729.08 54.56
  A 7.97 7.97 0.0 0 0 721.11 62.53
  A 7.97 7.97 0.0 0 0 729.08 70.50
  A 7.97 7.97 0.0 0 0 737.05 62.53
  Z"
/>
<path fill="#FFFFFF" d="
  M 869.00 2.81
  L 869.00 66.56
  L 855.75 66.61
  A 1.00 1.00 0.0 0 1 854.75 65.61
  L 854.75 3.61
  A 1.00 0.99 -1.8 0 1 855.69 2.62
  Q 862.50 2.17 869.00 2.81
  Z"
/>
<path fill="#FFFFFF" d="
  M 422.69 32.19
  C 428.06 20.09 444.70 16.16 456.78 16.36
  C 456.95 16.36 457.93 15.96 457.68 16.56
  A 0.53 0.51 -83.3 0 1 457.30 16.87
  C 445.18 19.00 434.02 26.78 434.79 40.50
  C 436.57 72.41 480.73 74.75 502.78 69.92
  Q 503.79 69.70 502.95 70.30
  Q 502.76 70.43 502.54 70.52
  C 482.35 78.52 442.82 78.02 426.99 61.43
  Q 415.19 49.07 422.69 32.19
  Z"
/>
<path fill="#FFFFFF" d="
  M 57.33 48.06
  Q 57.50 50.98 59.00 52.27
  Q 66.29 58.50 71.90 51.15
  A 0.99 0.99 0.0 0 1 73.01 50.81
  L 82.74 54.13
  A 1.00 1.00 0.0 0 1 83.24 55.64
  Q 74.32 68.76 58.26 65.25
  Q 51.42 63.75 46.45 56.36
  C 37.64 43.25 44.86 25.57 60.31 22.57
  C 74.93 19.73 87.13 31.52 86.50 46.04
  A 1.00 1.00 0.0 0 1 85.50 47.00
  L 58.33 47.00
  A 1.00 1.00 0.0 0 0 57.33 48.06
  Z
  M 69.06 33.94
  Q 66.29 31.92 63.42 32.59
  Q 59.98 33.39 58.70 36.36
  A 1.00 1.00 0.0 0 0 59.62 37.75
  L 70.20 37.75
  A 1.00 1.00 0.0 0 0 71.12 36.36
  Q 70.54 35.01 69.06 33.94
  Z"
/>
<path fill="#FFFFFF" d="
  M 195.83 54.16
  A 1.00 0.99 25.4 0 1 196.36 55.63
  C 184.87 74.08 155.34 66.18 155.62 44.44
  C 156.00 15.12 199.10 14.28 199.64 45.98
  A 1.00 1.00 0.0 0 1 198.64 47.00
  L 171.44 47.00
  A 1.00 0.99 -3.3 0 0 170.45 48.11
  Q 171.04 53.35 175.45 54.59
  Q 181.61 56.30 184.86 51.19
  A 1.00 0.99 25.6 0 1 186.03 50.78
  L 195.83 54.16
  Z
  M 181.81 33.69
  Q 175.17 30.22 171.83 36.27
  A 1.00 1.00 0.0 0 0 172.71 37.75
  L 183.33 37.75
  A 1.00 1.00 0.0 0 0 184.25 36.35
  Q 183.46 34.55 181.81 33.69
  Z"
/>
<path fill="#FFFFFF" d="
  M 102.46 26.09
  Q 102.35 27.74 103.71 26.80
  Q 115.26 18.85 126.09 28.43
  A 1.01 1.00 -45.7 0 0 127.44 28.41
  C 136.63 19.90 153.83 20.80 153.79 36.73
  Q 153.75 50.64 153.70 64.50
  A 1.01 1.00 -89.7 0 1 152.70 65.50
  L 140.33 65.50
  A 1.01 1.00 89.4 0 1 139.33 64.51
  Q 139.18 53.34 139.21 42.26
  C 139.24 33.58 128.42 32.07 128.49 41.12
  Q 128.57 52.82 128.43 64.51
  A 1.01 1.00 -89.4 0 1 127.43 65.50
  L 115.08 65.50
  A 1.00 1.00 0.0 0 1 114.08 64.51
  Q 113.97 53.57 113.97 42.70
  C 113.97 32.58 102.44 33.29 102.49 41.13
  Q 102.56 52.83 102.43 64.51
  A 1.00 1.00 0.0 0 1 101.43 65.50
  L 89.00 65.50
  A 1.00 1.00 0.0 0 1 88.00 64.50
  L 88.00 25.50
  A 1.00 1.00 0.0 0 1 89.00 24.50
  L 101.50 24.50
  A 1.00 0.99 -87.9 0 1 102.49 25.57
  L 102.46 26.09
  Z"
/>
<path fill="#FFFFFF" d="
  M 217.56 26.51
  Q 223.01 22.93 229.75 23.44
  C 239.76 24.19 242.90 32.39 242.97 41.20
  Q 243.05 52.85 242.97 64.51
  A 1.00 1.00 0.0 0 1 241.97 65.50
  L 229.57 65.50
  A 1.01 1.00 89.4 0 1 228.57 64.51
  Q 228.43 52.45 228.51 40.52
  C 228.57 32.37 215.98 32.57 216.00 41.76
  Q 216.02 53.13 215.98 64.50
  A 1.01 1.00 -89.7 0 1 214.98 65.50
  L 202.50 65.50
  A 1.00 1.00 0.0 0 1 201.50 64.50
  L 201.50 25.50
  A 1.00 1.00 0.0 0 1 202.50 24.50
  L 215.20 24.50
  A 0.80 0.80 0.0 0 1 216.00 25.28
  L 216.01 25.70
  Q 216.05 27.50 217.56 26.51
  Z"
/>
<path fill="#FFFFFF" d="
  M 294.12 62.66
  Q 283.53 68.36 274.69 63.35
  C 252.86 50.98 267.28 14.77 291.99 25.25
  C 293.20 25.76 295.35 28.52 295.41 25.48
  A 1.00 0.99 0.3 0 1 296.41 24.50
  L 308.75 24.50
  A 1.00 1.00 0.0 0 1 309.75 25.50
  L 309.75 63.50
  A 1.00 1.00 0.0 0 1 308.75 64.50
  L 295.90 64.50
  A 0.64 0.64 0.0 0 1 295.26 63.80
  L 295.29 63.44
  Q 295.44 61.95 294.12 62.66
  Z
  M 287.2978 53.6687
  A 8.72 8.05 91.0 0 0 295.4988 45.0905
  A 8.72 8.05 91.0 0 0 287.6022 36.2313
  A 8.72 8.05 91.0 0 0 279.4012 44.8095
  A 8.72 8.05 91.0 0 0 287.2978 53.6687
  Z"
/>
<rect fill="#FFFFFF" x="247.25" y="24.50" width="14.50" height="41.00" rx="0.60"/>
<path fill="#FFFFFF" d="
  M 419.98 35.09
  L 418.83 40.90
  A 1.00 0.99 -82.7 0 1 417.80 41.70
  Q 409.11 41.29 401.15 44.62
  A 1.01 1.00 -20.4 0 0 400.58 45.85
  C 402.01 50.21 414.64 50.60 418.54 50.52
  A 1.01 1.01 0.0 0 1 419.53 51.26
  Q 420.50 54.86 422.38 58.06
  Q 423.31 59.63 421.48 59.56
  Q 405.28 58.94 389.83 53.90
  Q 384.90 52.29 380.41 49.32
  Q 377.49 47.38 379.25 44.35
  C 380.50 42.17 386.24 40.05 388.87 39.24
  Q 403.62 34.65 418.95 33.89
  A 1.00 1.00 0.0 0 1 419.98 35.09
  Z"
/>
<path fill="#FFFFFF" d="
  M 466.05 44.67
  L 466.20 44.97
  A 1.02 1.01 75.5 0 0 467.09 45.50
  L 495.29 45.50
  A 1.00 0.99 82.4 0 1 496.25 46.24
  C 496.57 47.43 495.49 47.72 494.52 47.73
  Q 480.64 47.78 466.76 47.74
  Q 465.68 47.73 465.33 48.63
  A 1.00 1.00 0.0 0 0 466.26 50.00
  L 488.12 50.00
  A 1.00 1.00 0.0 0 1 489.11 51.11
  L 489.08 51.38
  A 1.01 1.00 3.2 0 1 488.08 52.27
  Q 475.80 52.19 463.53 52.30
  Q 461.43 52.32 459.35 53.29
  Q 452.26 56.60 444.51 57.89
  A 1.00 0.99 60.8 0 1 443.68 57.65
  C 437.74 52.27 435.12 43.06 436.91 35.25
  A 1.01 1.00 8.4 0 1 437.96 34.48
  Q 450.06 35.32 460.95 40.22
  Q 463.11 41.20 465.29 41.21
  Q 478.50 41.30 491.73 41.23
  C 492.97 41.22 494.59 42.14 492.83 43.33
  A 1.02 0.97 26.8 0 1 492.27 43.50
  L 466.75 43.50
  A 0.80 0.79 76.0 0 0 466.05 44.67
  Z"
/>
<circle fill="#FFFFFF" cx="604.31" cy="75.62" r="7.05"/>
<circle fill="#FFFFFF" cx="621.77" cy="75.62" r="7.03"/>
<circle fill="#FFFFFF" cx="774.12" cy="75.62" r="7.04"/>
<circle fill="#FFFFFF" cx="791.58" cy="75.62" r="7.03"/>
<ellipse fill="#FFFFFF" cx="0.00" cy="0.00" transform="translate(572.39,93.10) rotate(0.4)" rx="1.91" ry="1.68"/>
<ellipse fill="#FFFFFF" cx="0.00" cy="0.00" transform="translate(577.15,93.10) rotate(7.1)" rx="1.91" ry="1.66"/>
<path fill="#FFFFFF" d="
  M 600.50 117.00
  L 609.24 117.00
  A 1.00 0.99 -82.4 0 0 610.20 116.26
  C 612.93 106.31 629.24 106.39 632.01 116.27
  A 1.01 1.01 0.0 0 0 632.98 117.00
  L 638.55 117.00
  A 1.01 1.00 90.0 0 0 639.55 115.99
  L 639.48 108.01
  A 1.00 1.00 0.0 0 1 640.48 107.00
  L 641.00 107.00
  A 1.00 1.00 0.0 0 1 642.00 108.00
  L 642.00 116.00
  A 1.00 1.00 0.0 0 0 643.00 117.00
  L 645.99 117.00
  A 1.01 1.00 -89.7 0 0 646.99 116.00
  Q 647.02 104.36 646.99 92.74
  Q 646.98 90.88 648.61 91.51
  A 1.00 0.99 -79.8 0 1 649.25 92.44
  L 649.25 117.99
  A 1.00 1.00 0.0 0 1 648.25 118.99
  L 633.09 119.00
  A 1.01 0.99 -79.2 0 0 632.16 119.65
  C 628.33 129.67 613.28 130.33 610.10 119.71
  A 1.00 0.99 -8.1 0 0 609.14 119.00
  L 577.50 119.00
  A 1.00 1.00 0.0 0 1 576.50 118.00
  L 576.50 111.50
  A 1.00 1.00 0.0 0 0 575.50 110.50
  L 567.02 110.50
  A 1.00 1.00 0.0 0 1 566.03 109.35
  Q 566.32 107.40 567.28 104.79
  Q 570.15 97.00 577.98 96.84
  A 1.00 1.00 0.0 0 1 579.00 97.84
  L 579.00 116.00
  A 1.00 1.00 0.0 0 0 580.00 117.00
  L 585.50 117.00
  A 1.00 1.00 0.0 0 0 586.50 116.00
  L 586.50 107.80
  A 0.80 0.80 0.0 0 1 587.33 107.00
  L 587.78 107.02
  A 1.00 1.00 0.0 0 1 588.75 108.02
  L 588.75 116.00
  A 1.00 1.00 0.0 0 0 589.75 117.00
  L 596.25 117.00
  A 1.00 1.00 0.0 0 0 597.25 116.00
  L 597.25 107.82
  A 0.80 0.80 0.0 0 1 598.02 107.02
  L 598.46 107.01
  A 1.00 1.00 0.0 0 1 599.50 108.01
  L 599.50 116.00
  A 1.00 1.00 0.0 0 0 600.50 117.00
  Z
  M 570.69 102.69
  Q 569.22 104.90 568.78 107.32
  A 1.00 1.00 0.0 0 0 569.76 108.50
  L 575.50 108.50
  A 1.00 1.00 0.0 0 0 576.50 107.50
  L 576.50 100.23
  A 1.00 0.99 81.9 0 0 575.23 99.27
  Q 572.43 100.06 570.69 102.69
  Z
  M 629.8899 118.0439
  A 8.81 7.21 -0.3 0 0 621.0422 110.8801
  A 8.81 7.21 -0.3 0 0 612.2701 118.1361
  A 8.81 7.21 -0.3 0 0 621.1178 125.2999
  A 8.81 7.21 -0.3 0 0 629.8899 118.0439
  Z"
/>
<rect fill="#FFFFFF" x="653.00" y="91.50" width="2.26" height="27.50" rx="0.60"/>
<ellipse fill="#FFFFFF" cx="0.00" cy="0.00" transform="translate(670.88,93.10) rotate(3.0)" rx="1.90" ry="1.67"/>
<ellipse fill="#FFFFFF" cx="675.65" cy="93.13" rx="1.89" ry="1.70"/>
<path fill="#FFFFFF" d="
  M 703.92 120.76
  Q 705.99 119.00 703.27 119.00
  L 695.06 119.00
  A 1.00 1.00 0.0 0 1 694.06 117.93
  L 694.08 117.68
  A 1.00 1.00 0.0 0 1 695.03 116.75
  C 700.34 116.48 704.11 110.75 705.29 106.04
  A 1.00 1.00 0.0 0 1 706.26 105.28
  L 707.00 105.28
  A 1.00 0.99 89.7 0 1 708.00 106.28
  L 708.00 116.00
  A 1.00 1.00 0.0 0 0 709.00 117.00
  L 733.99 117.00
  A 1.00 1.00 0.0 0 0 734.94 115.69
  Q 731.57 105.53 720.79 104.69
  Q 716.89 104.38 714.09 103.76
  Q 712.59 103.42 713.73 102.38
  Q 714.35 101.82 715.26 101.95
  Q 718.47 102.42 720.00 102.49
  C 728.06 102.83 736.25 107.69 737.56 116.15
  A 1.00 1.00 0.0 0 0 738.55 117.00
  L 741.50 117.00
  A 1.00 1.00 0.0 0 0 742.50 116.00
  L 742.50 92.50
  A 1.00 1.00 0.0 0 1 743.50 91.50
  L 744.00 91.50
  A 1.00 1.00 0.0 0 1 745.00 92.50
  L 745.00 118.00
  A 1.00 1.00 0.0 0 1 744.00 119.00
  L 708.50 119.00
  A 1.00 0.99 -72.0 0 0 707.69 119.42
  Q 703.10 125.87 694.97 125.44
  A 1.00 1.00 0.0 0 1 694.03 124.38
  L 694.05 124.10
  A 0.40 0.40 0.0 0 1 694.48 123.72
  Q 699.98 124.11 703.92 120.76
  Z
  M 704.11 113.42
  L 702.39 115.32
  Q 700.89 116.97 703.12 116.99
  L 704.48 117.01
  A 1.00 1.00 0.0 0 0 705.49 116.01
  L 705.51 113.96
  Q 705.52 111.87 704.11 113.42
  Z"
/>
<rect fill="#FFFFFF" x="748.50" y="91.50" width="2.50" height="27.50" rx="0.60"/>
<path fill="#FFFFFF" d="
  M 857.00 116.00
  L 857.00 92.50
  A 1.00 1.00 0.0 0 1 858.00 91.50
  L 858.50 91.50
  A 1.00 1.00 0.0 0 1 859.50 92.50
  L 859.50 118.00
  A 1.00 1.00 0.0 0 1 858.50 119.00
  L 800.94 119.00
  A 1.00 0.98 -71.6 0 0 800.14 119.41
  Q 795.32 125.96 786.98 125.44
  A 0.52 0.52 0.0 0 1 786.52 124.77
  L 786.63 124.43
  A 1.00 1.00 0.0 0 1 787.61 123.74
  Q 792.65 123.86 796.32 120.78
  Q 798.42 119.01 795.68 119.01
  L 787.36 119.00
  A 1.02 1.02 0.0 0 1 786.37 118.15
  Q 786.08 116.31 788.40 116.82
  A 1.03 1.01 37.6 0 0 789.05 116.74
  Q 795.87 113.45 797.70 106.03
  A 1.01 1.00 6.0 0 1 798.65 105.27
  L 799.22 105.26
  A 1.00 0.99 -0.8 0 1 800.25 106.25
  L 800.25 115.86
  A 1.01 1.01 0.0 0 0 801.03 116.84
  Q 806.77 118.10 809.20 114.37
  C 811.73 110.49 810.47 97.74 810.52 92.72
  A 1.00 1.00 0.0 0 1 811.19 91.79
  Q 813.13 91.10 813.02 93.49
  Q 812.88 96.46 813.06 101.82
  A 0.99 0.99 0.0 0 0 813.91 102.78
  Q 826.02 104.52 829.16 116.26
  A 1.01 1.00 -7.5 0 0 830.13 117.00
  L 848.44 117.00
  A 1.00 1.00 0.0 0 0 849.41 115.76
  Q 847.84 109.54 842.08 106.64
  Q 838.75 104.96 832.49 104.53
  Q 831.73 104.48 828.64 103.78
  Q 827.10 103.44 828.29 102.40
  Q 828.48 102.24 828.71 102.11
  Q 829.18 101.87 829.97 101.95
  C 840.31 103.04 849.25 104.43 852.16 116.24
  A 1.00 1.00 0.0 0 0 853.13 117.00
  L 856.00 117.00
  A 1.00 1.00 0.0 0 0 857.00 116.00
  Z
  M 812.85 105.98
  Q 813.27 111.06 811.22 115.59
  A 1.00 0.99 12.3 0 0 812.13 117.00
  L 825.57 117.00
  A 1.00 1.00 0.0 0 0 826.52 115.67
  Q 823.41 106.73 814.04 104.92
  A 1.00 1.00 0.0 0 0 812.85 105.98
  Z
  M 796.64 113.24
  L 794.71 115.31
  Q 793.15 116.98 795.43 116.99
  L 796.99 117.00
  A 0.99 0.99 0.0 0 0 797.99 116.02
  L 798.03 113.80
  Q 798.06 111.72 796.64 113.24
  Z"
/>
<rect fill="#FFFFFF" x="863.00" y="91.50" width="2.50" height="27.50" rx="0.60"/>
<path fill="#FFFFFF" d="
  M 766.01 102.94
  Q 766.04 97.86 766.01 92.76
  A 0.99 0.99 0.0 0 1 767.04 91.76
  L 767.48 91.77
  A 0.80 0.80 0.0 0 1 768.25 92.57
  L 768.25 101.79
  A 1.00 1.00 0.0 0 0 769.11 102.78
  Q 782.28 104.60 784.77 117.81
  A 1.00 1.00 0.0 0 1 783.79 119.00
  L 759.84 119.00
  A 0.80 0.80 0.0 0 1 759.04 118.15
  L 759.06 117.82
  A 1.00 1.00 0.0 0 1 760.02 116.89
  C 766.97 116.59 765.98 108.98 766.01 102.94
  Z
  M 768.19 109.69
  Q 768.07 112.79 766.57 115.52
  A 1.00 1.00 0.0 0 0 767.44 117.00
  L 780.93 117.00
  A 1.00 1.00 0.0 0 0 781.87 115.67
  Q 778.77 106.78 769.46 104.96
  A 1.01 1.00 -84.3 0 0 768.27 105.94
  Q 768.26 107.81 768.19 109.69
  Z"
/>
<path fill="#FFFFFF" d="
  M 20.55 104.34
  L 28.88 92.87
  A 0.30 0.30 0.0 0 1 29.12 92.75
  L 33.66 92.75
  A 0.30 0.30 0.0 0 1 33.90 93.23
  L 22.56 108.01
  A 0.30 0.30 0.0 0 0 22.50 108.19
  L 22.50 117.95
  A 0.30 0.30 0.0 0 1 22.20 118.25
  L 18.55 118.25
  A 0.30 0.30 0.0 0 1 18.25 117.95
  L 18.25 108.25
  A 0.30 0.30 0.0 0 0 18.19 108.07
  L 6.77 93.23
  A 0.30 0.30 0.0 0 1 7.01 92.75
  L 11.60 92.75
  A 0.30 0.30 0.0 0 1 11.84 92.88
  L 20.07 104.34
  A 0.30 0.30 0.0 0 0 20.55 104.34
  Z"
/>
<path fill="#FFFFFF" d="
  M 176.18 93.04
  L 186.92 117.56
  A 0.49 0.49 0.0 0 1 186.47 118.24
  L 182.63 118.26
  A 0.49 0.49 0.0 0 1 182.17 117.96
  L 179.23 110.80
  A 0.49 0.49 0.0 0 0 178.77 110.50
  L 167.71 110.50
  A 0.49 0.49 0.0 0 0 167.26 110.79
  L 164.07 117.96
  A 0.49 0.49 0.0 0 1 163.62 118.25
  L 160.12 118.25
  A 0.49 0.49 0.0 0 1 159.68 117.56
  L 170.87 93.04
  A 0.49 0.49 0.0 0 1 171.31 92.75
  L 175.73 92.75
  A 0.49 0.49 0.0 0 1 176.18 93.04
  Z
  M 168.90 107.03
  A 0.31 0.31 0.0 0 0 169.18 107.46
  L 177.32 107.54
  A 0.31 0.31 0.0 0 0 177.61 107.11
  L 173.62 97.61
  A 0.31 0.31 0.0 0 0 173.05 97.60
  L 168.90 107.03
  Z"
/>
<rect fill="#FFFFFF" x="-2.00" y="-1.88" transform="translate(192.00,94.63) rotate(-0.9)" width="4.00" height="3.76" rx="0.60"/>
<ellipse fill="#FFFFFF" cx="0.00" cy="0.00" transform="translate(834.41,97.58) rotate(2.9)" rx="1.92" ry="1.65"/>
<path fill="#FFFFFF" d="
  M 685.00 116.00
  L 685.00 107.82
  A 0.80 0.80 0.0 0 1 685.77 107.02
  L 686.21 107.01
  A 1.00 1.00 0.0 0 1 687.25 108.01
  L 687.25 118.00
  A 1.00 1.00 0.0 0 1 686.25 119.00
  L 676.00 119.00
  A 1.00 1.00 0.0 0 1 675.00 118.00
  L 675.00 111.50
  A 1.00 1.00 0.0 0 0 674.00 110.50
  L 665.56 110.50
  A 1.00 1.00 0.0 0 1 664.56 109.41
  Q 664.82 106.47 666.46 103.21
  Q 669.70 96.75 676.50 96.76
  A 1.01 1.00 0.3 0 1 677.50 97.76
  L 677.50 116.00
  A 1.00 1.00 0.0 0 0 678.50 117.00
  L 684.00 117.00
  A 1.00 1.00 0.0 0 0 685.00 116.00
  Z
  M 669.19 102.69
  Q 667.78 104.93 667.23 107.27
  A 1.01 1.01 0.0 0 0 668.21 108.50
  L 674.00 108.50
  A 1.00 1.00 0.0 0 0 675.00 107.50
  L 675.00 100.24
  A 1.00 1.00 0.0 0 0 673.76 99.27
  Q 670.90 99.97 669.19 102.69
  Z"
/>
<path fill="#FFFFFF" d="
  M 41.31 115.94
  Q 45.62 116.43 47.82 112.72
  A 1.00 0.99 -73.8 0 1 48.71 112.23
  L 50.66 112.29
  A 1.00 1.00 0.0 0 1 51.48 113.82
  Q 47.55 120.20 39.42 118.60
  Q 33.15 117.37 31.88 111.06
  C 28.81 95.84 54.51 95.24 52.16 109.17
  A 1.01 1.01 0.0 0 1 51.17 110.00
  L 37.24 110.00
  A 1.00 0.99 -4.2 0 0 36.25 111.14
  Q 36.86 115.43 41.31 115.94
  Z
  M 46.31 103.44
  Q 39.98 99.65 36.43 105.75
  Q 35.56 107.25 37.30 107.25
  L 46.99 107.25
  A 1.00 1.00 0.0 0 0 47.97 106.05
  Q 47.59 104.20 46.31 103.44
  Z"
/>
<path fill="#FFFFFF" d="
  M 61.47 101.03
  C 65.12 98.81 69.28 97.98 72.68 101.12
  A 1.00 0.99 47.4 0 0 73.96 101.18
  C 78.69 97.55 87.13 98.06 87.22 105.79
  Q 87.30 111.52 87.23 117.26
  A 1.00 1.00 0.0 0 1 86.23 118.25
  L 84.00 118.25
  A 1.00 1.00 0.0 0 1 83.00 117.25
  L 83.01 103.74
  A 1.01 1.00 -81.4 0 0 82.31 102.78
  C 71.52 99.43 74.02 111.72 73.99 117.26
  A 1.00 1.00 0.0 0 1 72.99 118.25
  L 71.01 118.25
  A 1.01 1.00 89.7 0 1 70.01 117.25
  L 69.97 103.67
  A 1.01 1.01 0.0 0 0 69.27 102.72
  C 58.86 99.42 60.63 111.75 60.75 117.23
  A 1.00 1.00 0.0 0 1 59.75 118.25
  L 57.75 118.25
  A 1.00 1.00 0.0 0 1 56.75 117.25
  L 56.75 100.50
  A 1.00 1.00 0.0 0 1 57.75 99.50
  L 59.89 99.50
  A 0.80 0.80 0.0 0 1 60.69 100.31
  L 60.69 100.59
  Q 60.68 101.51 61.47 101.03
  Z"
/>
<path fill="#FFFFFF" d="
  M 100.56 115.94
  Q 105.01 116.53 107.35 112.72
  A 0.99 0.97 15.8 0 1 108.21 112.25
  L 110.11 112.26
  A 1.00 1.00 0.0 0 1 110.97 113.76
  Q 107.75 119.37 100.27 118.69
  C 93.86 118.12 90.46 113.93 91.32 107.59
  C 92.33 100.08 101.77 96.46 108.15 100.91
  Q 112.14 103.69 111.69 109.08
  A 1.01 1.00 -87.5 0 1 110.69 110.00
  L 96.71 110.00
  A 1.00 1.00 0.0 0 0 95.72 111.13
  Q 96.27 115.37 100.56 115.94
  Z
  M 105.05 102.97
  Q 99.41 100.16 95.69 105.70
  Q 94.64 107.25 96.52 107.25
  L 106.34 107.25
  A 1.00 1.00 0.0 0 0 107.33 106.12
  Q 107.04 103.97 105.05 102.97
  Z"
/>
<path fill="#FFFFFF" d="
  M 121.54 100.91
  Q 126.10 97.60 131.60 99.94
  C 136.28 101.94 134.79 112.94 134.73 117.26
  A 1.00 1.00 0.0 0 1 133.73 118.25
  L 131.75 118.25
  A 1.00 1.00 0.0 0 1 130.75 117.25
  L 130.74 103.93
  A 0.99 0.99 0.0 0 0 130.07 102.99
  C 118.21 98.77 120.29 110.91 120.24 117.26
  A 1.00 1.00 0.0 0 1 119.24 118.25
  L 117.25 118.25
  A 1.00 1.00 0.0 0 1 116.25 117.25
  L 116.25 100.54
  A 1.01 1.00 -9.3 0 1 116.94 99.59
  Q 119.49 98.75 119.99 100.39
  A 1.00 1.00 0.0 0 0 121.54 100.91
  Z"
/>
<path fill="#FFFFFF" d="
  M 203.33 100.96
  Q 203.00 102.62 204.20 101.42
  Q 206.39 99.22 209.58 99.02
  A 1.00 0.99 86.0 0 1 210.64 99.95
  L 210.75 101.63
  A 1.00 0.99 90.0 0 1 209.69 102.70
  C 201.63 102.17 203.75 112.45 203.74 117.25
  A 1.01 1.00 -89.7 0 1 202.74 118.25
  L 200.75 118.25
  A 1.00 1.00 0.0 0 1 199.75 117.25
  L 199.75 100.50
  A 1.00 1.00 0.0 0 1 200.75 99.50
  L 202.40 99.50
  A 1.00 1.00 0.0 0 1 203.38 100.70
  L 203.33 100.96
  Z"
/>
<path fill="#FFFFFF" d="
  M 263.65 115.72
  Q 265.50 115.50 264.96 117.66
  A 1.03 1.02 89.6 0 1 264.26 118.38
  Q 261.00 119.29 259.08 117.01
  A 1.00 0.99 54.5 0 0 257.80 116.79
  Q 253.64 119.28 249.30 118.65
  C 241.38 117.52 242.14 108.57 249.56 107.62
  Q 252.84 107.21 256.11 106.89
  C 257.99 106.70 260.07 104.93 258.15 103.39
  Q 257.20 102.63 254.51 102.10
  Q 250.34 101.28 248.61 104.93
  A 1.00 1.00 0.0 0 1 247.71 105.50
  L 246.01 105.50
  A 1.00 0.99 -88.6 0 1 245.02 104.45
  Q 245.17 101.06 248.69 99.91
  Q 254.50 98.01 260.18 100.35
  Q 262.48 101.30 262.49 104.25
  L 262.53 114.73
  A 1.01 1.00 -3.1 0 0 263.65 115.72
  Z
  M 251.41 110.29
  C 243.35 111.59 250.85 119.39 257.11 114.29
  Q 258.91 112.83 258.59 110.28
  A 1.00 0.99 -7.2 0 0 257.47 109.42
  Q 254.44 109.81 251.41 110.29
  Z"
/>
<path fill="#FFFFFF" d="
  M 290.44 101.14
  A 1.02 0.99 0.7 0 1 290.87 100.73
  C 294.77 98.78 305.87 97.50 306.43 103.87
  A 0.99 0.98 78.6 0 1 305.75 104.90
  Q 303.20 105.74 302.06 103.43
  A 0.98 0.96 1.3 0 0 301.63 102.99
  C 296.18 100.06 288.62 104.95 296.80 106.68
  C 301.97 107.77 310.61 108.25 306.11 116.73
  A 1.05 1.00 -87.3 0 1 305.66 117.16
  Q 298.65 120.53 291.75 117.77
  Q 289.30 116.79 288.71 113.39
  A 0.99 0.99 0.0 0 1 289.41 112.26
  Q 292.27 111.42 293.12 114.10
  A 0.99 0.98 -83.0 0 0 293.53 114.63
  C 299.79 118.72 307.53 112.33 300.67 110.97
  C 295.69 109.98 285.91 109.42 290.44 101.14
  Z"
/>
<path fill="#FFFFFF" d="
  M 232.94 112.77
  C 233.49 112.70 236.74 101.57 237.16 100.21
  A 1.01 1.00 -81.4 0 1 238.12 99.50
  L 240.09 99.50
  A 1.00 1.00 0.0 0 1 241.03 100.83
  L 235.16 117.58
  A 0.99 0.99 0.0 0 1 234.22 118.25
  L 231.49 118.25
  A 0.99 0.98 -8.2 0 1 230.54 117.55
  L 227.33 107.26
  Q 226.36 104.15 225.42 107.27
  L 222.32 117.54
  A 1.01 1.00 -81.4 0 1 221.36 118.25
  L 218.61 118.25
  A 0.99 0.99 0.0 0 1 217.67 117.58
  L 211.82 100.83
  A 1.00 1.00 0.0 0 1 212.76 99.50
  L 215.07 99.50
  A 1.00 1.00 0.0 0 1 216.03 100.22
  L 219.22 111.22
  Q 219.98 113.83 220.76 111.22
  L 224.02 100.21
  A 1.00 0.99 8.1 0 1 224.98 99.50
  L 227.98 99.50
  A 1.00 0.99 -8.1 0 1 228.94 100.21
  L 232.66 112.58
  A 0.27 0.26 -10.5 0 0 232.94 112.77
  Z"
/>
<path fill="#FFFFFF" d="
  M 275.85 112.44
  Q 276.59 114.31 277.34 112.44
  L 282.25 100.13
  A 1.00 1.00 0.0 0 1 283.18 99.50
  L 285.42 99.50
  A 1.00 1.00 0.0 0 1 286.35 100.87
  Q 281.40 113.11 276.75 122.24
  Q 274.43 126.81 269.05 125.73
  A 0.99 0.99 0.0 0 1 268.25 124.75
  L 268.25 123.75
  A 1.00 1.00 0.0 0 1 269.35 122.76
  Q 273.70 123.19 274.16 118.37
  Q 274.19 118.11 274.08 117.87
  L 266.68 100.90
  A 1.00 1.00 0.0 0 1 267.61 99.50
  L 270.05 99.52
  A 1.01 1.01 0.0 0 1 270.97 100.15
  L 275.85 112.44
  Z"
/>
<rect fill="#FFFFFF" x="190.00" y="99.75" width="4.00" height="18.50" rx="0.60"/>
<ellipse fill="#FFFFFF" cx="0.00" cy="0.00" transform="translate(593.10,101.64) rotate(0.5)" rx="1.92" ry="1.69"/>
<ellipse fill="#FFFFFF" cx="0.00" cy="0.00" transform="translate(580.07,124.05) rotate(3.8)" rx="1.87" ry="1.65"/>
<ellipse fill="#FFFFFF" cx="0.00" cy="0.00" transform="translate(584.90,124.03) rotate(-4.2)" rx="1.91" ry="1.61"/>
<ellipse fill="#FFFFFF" cx="0.00" cy="0.00" transform="translate(635.09,124.05) rotate(2.9)" rx="1.89" ry="1.61"/>
<ellipse fill="#FFFFFF" cx="0.00" cy="0.00" transform="translate(639.89,124.02) rotate(-6.1)" rx="1.89" ry="1.62"/>
<rect fill="#FFFFFF" x="-1.85" y="-1.58" transform="translate(680.12,124.07) rotate(5.5)" width="3.70" height="3.16" rx="1.43"/>
<ellipse fill="#FFFFFF" cx="0.00" cy="0.00" transform="translate(684.91,124.04) rotate(-5.3)" rx="1.89" ry="1.63"/>
<ellipse fill="#FFFFFF" cx="0.00" cy="0.00" transform="translate(724.89,124.02) rotate(-2.3)" rx="1.92" ry="1.61"/>
</svg>
