<svg width="21" height="22" viewBox="0 0 21 22" fill="none" xmlns="http://www.w3.org/2000/svg">
<path fill-rule="evenodd" clip-rule="evenodd" d="M4.49422 4.13464C3.06897 4.13464 1.91357 5.29004 1.91357 6.71529V15.3174C1.91357 16.7427 3.06897 17.8981 4.49422 17.8981H16.5372C17.9625 17.8981 19.1179 16.7427 19.1179 15.3174V6.71529C19.1179 5.29004 17.9625 4.13464 16.5372 4.13464H4.49422ZM3.71255 6.35567C3.84873 6.06018 4.14752 5.85507 4.49422 5.85507H16.5372C16.8839 5.85507 17.1827 6.06018 17.3189 6.35567L11.0438 11.2363C10.7332 11.4779 10.2982 11.4779 9.9876 11.2363L3.71255 6.35567ZM3.634 8.47412V13.4808L6.74163 10.8912L3.634 8.47412ZM3.70532 15.6609C3.83792 15.9651 4.14124 16.1777 4.49422 16.1777H16.5372C16.8902 16.1777 17.1935 15.9651 17.3261 15.6609L12.8998 11.9723L12.1001 12.5943C11.1682 13.3191 9.86326 13.3191 8.93136 12.5943L8.13166 11.9723L3.70532 15.6609ZM17.3974 13.4808V8.47412L14.2898 10.8912L17.3974 13.4808Z" fill="#141313"/>
</svg>
