<svg width="21" height="22" viewBox="0 0 21 22" fill="none" xmlns="http://www.w3.org/2000/svg">
<path fill-rule="evenodd" clip-rule="evenodd" d="M4.43322 4.50361C5.94493 2.9919 8.39589 2.9919 9.9076 4.50361C11.4193 6.01531 11.4193 8.46627 9.9076 9.97798C9.34491 10.5407 8.65209 10.8939 7.92601 11.0377L10.0644 13.1761C10.2082 12.45 10.5614 11.7572 11.1241 11.1945C12.6358 9.6828 15.0868 9.6828 16.5985 11.1945C18.1102 12.7062 18.1102 15.1572 16.5985 16.6689C15.1896 18.0778 12.9648 18.1736 11.445 16.9563L11.4283 16.973L11.1241 16.6689L4.43322 9.97798L4.12909 9.67385L4.1458 9.65714C2.92851 8.13728 3.02432 5.91251 4.43322 4.50361ZM12.3407 15.4524C13.1805 16.2922 14.5421 16.2922 15.382 15.4524C16.2218 14.6125 16.2218 13.2509 15.382 12.411C14.5421 11.5712 13.1805 11.5712 12.3407 12.411C11.5008 13.2509 11.5008 14.6125 12.3407 15.4524ZM8.69107 8.76145C7.85123 9.60129 6.48959 9.60129 5.64975 8.76145C4.80991 7.92162 4.80991 6.55997 5.64975 5.72013C6.48959 4.8803 7.85123 4.8803 8.69107 5.72013C9.53091 6.55997 9.53091 7.92162 8.69107 8.76145Z" fill="#141313"/>
</svg>
